<?xml version="1.0" standalone="no"?>
<!DOCTYPE svg PUBLIC "-//W3C//DTD SVG 20010904//EN"
 "http://www.w3.org/TR/2001/REC-SVG-20010904/DTD/svg10.dtd">
<svg version="1.0" xmlns="http://www.w3.org/2000/svg"
 width="264.000000pt" height="191.000000pt" viewBox="0 0 264.000000 191.000000"
 preserveAspectRatio="xMidYMid meet">

<g transform="translate(0.000000,191.000000) scale(0.100000,-0.100000)"
fill="#000000" stroke="none">
<path d="M2304 1761 c-92 -31 -125 -65 -154 -156 -17 -53 -37 -75 -69 -75 -15
0 -44 -9 -66 -20 -39 -20 -109 -26 -132 -12 -15 10 -35 61 -27 73 3 5 16 6 30
3 18 -5 24 -2 24 11 0 13 -6 15 -30 10 -24 -5 -30 -3 -30 10 0 8 7 18 15 21
19 8 20 34 1 34 -8 0 -18 -9 -21 -20 -12 -36 -35 -16 -35 31 0 12 -7 19 -20
19 -24 0 -24 1 -6 -41 12 -28 12 -35 0 -47 -8 -8 -24 -12 -34 -9 -13 3 -20 0
-20 -9 0 -9 11 -14 28 -14 20 0 41 -14 77 -50 31 -31 64 -54 87 -61 41 -11 42
-22 4 -71 -46 -58 -276 -241 -276 -220 0 5 7 15 15 22 19 16 31 78 17 92 -6 6
-41 16 -79 22 -75 12 -94 33 -48 54 14 6 25 18 25 27 0 20 -9 19 -33 -2 -19
-17 -20 -17 -14 7 3 14 9 35 12 48 5 16 3 22 -7 22 -9 0 -18 -17 -24 -42 -11
-52 -28 -56 -32 -8 -4 42 -15 55 -37 46 -15 -6 -15 -9 4 -42 37 -62 20 -85
-33 -43 -27 21 -46 18 -46 -6 0 -8 15 -17 38 -20 75 -13 83 -27 26 -51 -25
-11 -33 -19 -26 -26 7 -7 18 -4 36 7 29 19 116 17 155 -5 21 -10 19 -14 -40
-80 -51 -57 -74 -74 -128 -96 -88 -35 -161 -33 -332 8 -181 43 -289 44 -373 5
-32 -15 -79 -42 -105 -61 -74 -54 -105 -66 -169 -66 -90 0 -135 28 -202 127
-30 45 -61 89 -68 100 -6 10 4 -15 24 -56 20 -41 58 -98 86 -127 97 -103 182
-109 328 -25 158 92 250 101 442 45 106 -31 195 -50 393 -82 45 -8 52 -23 54
-124 1 -64 5 -61 -93 -72 -27 -4 -60 -13 -72 -21 -13 -8 -44 -15 -69 -15 -39
0 -46 -3 -43 -17 4 -18 11 -19 76 -7 27 6 32 4 32 -12 0 -10 -12 -30 -26 -45
-16 -17 -24 -34 -21 -43 10 -26 24 -18 41 25 22 54 42 46 38 -16 -2 -35 0 -46
10 -43 7 3 14 23 16 48 l3 43 34 -33 c18 -18 38 -29 44 -26 19 12 12 24 -29
47 -46 26 -40 48 8 31 29 -10 42 -7 42 8 0 4 -18 10 -41 14 -68 11 -43 31 44
34 92 3 92 3 101 125 3 49 11 97 16 107 6 12 30 23 65 30 98 20 183 72 303
182 61 57 120 115 132 131 36 46 51 36 83 -56 8 -21 31 -12 71 28 29 29 86 34
106 10 7 -8 20 -15 29 -15 13 1 11 5 -6 19 -33 28 -30 51 7 51 17 0 30 5 30
10 0 6 -16 10 -35 10 -41 0 -42 3 -15 37 28 36 16 42 -19 9 -32 -30 -47 -22
-32 17 10 24 6 37 -11 37 -4 0 -8 -18 -8 -40 0 -45 -16 -53 -30 -14 -6 14 -15
22 -21 19 -7 -5 -5 -15 5 -31 9 -13 16 -30 16 -38 0 -18 -56 -84 -64 -76 -3 3
-11 38 -17 78 -11 68 -11 75 8 100 11 15 42 35 69 45 65 24 126 86 159 159 22
49 25 65 16 84 -9 21 -17 24 -58 23 -27 0 -71 -8 -99 -18z"/>
<path d="M1715 1650 c-3 -5 8 -16 24 -25 41 -21 44 -19 25 10 -17 26 -38 32
-49 15z"/>
<path d="M1316 365 c4 -9 0 -15 -10 -15 -9 0 -16 -8 -16 -20 0 -11 6 -20 13
-20 7 0 13 -18 15 -47 4 -68 11 -73 113 -73 94 0 109 8 109 59 0 29 -46 29
-53 0 -5 -17 -12 -20 -54 -17 -48 3 -48 3 -51 41 l-3 37 55 0 c49 0 56 2 56
20 0 18 -7 20 -55 20 -42 0 -55 3 -55 15 0 10 -11 15 -35 15 -26 0 -33 -3 -29
-15z"/>
<path d="M1560 365 c0 -8 -4 -15 -10 -15 -5 0 -10 -9 -10 -20 0 -11 5 -20 10
-20 6 0 10 -17 10 -38 0 -21 7 -48 16 -60 14 -20 24 -22 99 -22 92 0 115 11
115 56 0 19 -5 24 -24 24 -15 0 -26 -7 -29 -20 -4 -17 -14 -20 -56 -20 l-51 0
0 40 0 40 55 0 c48 0 55 2 55 20 0 18 -7 20 -55 20 -42 0 -55 3 -55 15 0 10
-11 15 -35 15 -24 0 -35 -5 -35 -15z"/>
<path d="M186 314 c-21 -20 -21 -88 0 -108 12 -13 39 -16 130 -16 107 0 114 1
114 20 0 18 -8 20 -97 22 -95 3 -98 4 -98 27 0 21 5 23 50 26 28 2 76 1 108
-2 l57 -6 0 -73 0 -74 30 0 30 0 0 88 c0 55 -4 92 -12 100 -8 8 -57 12 -154
12 -116 0 -145 -3 -158 -16z"/>
<path d="M540 270 c0 -48 4 -61 19 -70 11 -5 82 -10 160 -10 165 0 171 3 171
86 0 53 0 54 -29 54 -28 0 -30 -2 -33 -47 l-3 -48 -110 0 -110 0 -3 48 c-3 45
-5 47 -33 47 -29 0 -29 0 -29 -60z"/>
<path d="M932 318 c-16 -16 -16 -100 0 -116 8 -8 53 -12 135 -12 116 0 123 1
123 20 0 18 -8 20 -102 22 -102 3 -103 3 -103 28 l0 25 110 -1 110 0 3 -47 c3
-46 4 -47 35 -47 l32 0 -3 57 c-2 32 -9 64 -14 71 -14 17 -309 17 -326 0z"/>
<path d="M1837 312 c-11 -12 -17 -36 -17 -70 0 -51 1 -52 30 -52 29 0 30 2 30
44 l0 43 55 7 c65 7 105 0 105 -20 0 -9 11 -14 30 -14 25 0 30 4 30 23 0 46
-27 57 -142 57 -89 0 -107 -3 -121 -18z"/>
<path d="M2142 318 c-7 -7 -12 -33 -12 -58 0 -25 5 -51 12 -58 8 -8 57 -12
153 -12 125 0 144 2 158 18 21 23 22 71 1 100 -14 21 -22 22 -158 22 -97 0
-146 -4 -154 -12z m261 -37 c5 0 7 -11 5 -23 -3 -22 -7 -23 -113 -23 -99 0
-110 2 -113 19 -2 10 1 22 8 26 9 5 180 7 213 1z"/>
</g>
</svg>
